<svg width="1280" height="692" viewBox="0 0 1280 692" fill="none" xmlns="http://www.w3.org/2000/svg">
<g opacity="0.1" clip-path="url(#clip0_1100_27036)">
<path d="M2141 752H-862L-22.6032 562H1301.59L1302.08 562.109L2140.99 752H2141ZM-856.002 751.521H2135L1299.84 562.479H-20.8418L-856.002 751.521Z" fill="url(#paint0_linear_1100_27036)" fill-opacity="0.7"/>
<path d="M1989.55 751.64L1986.75 751.881L1233.19 562.363L1236 562.119L1989.55 751.64Z" fill="url(#paint1_linear_1100_27036)" fill-opacity="0.7"/>
<path d="M1839.74 751.651L1836.86 751.87L1167.04 562.352L1169.91 562.13L1839.74 751.651Z" fill="url(#paint2_linear_1100_27036)" fill-opacity="0.7"/>
<path d="M1689.93 751.661L1686.97 751.86L1100.87 562.342L1103.83 562.143L1689.93 751.661Z" fill="url(#paint3_linear_1100_27036)" fill-opacity="0.7"/>
<path d="M1540.11 751.674L1537.08 751.849L1034.72 562.328L1037.74 562.154L1540.11 751.674Z" fill="url(#paint4_linear_1100_27036)" fill-opacity="0.7"/>
<path d="M1390.29 751.688L1387.21 751.836L968.566 562.315L971.651 562.167L1390.29 751.688Z" fill="url(#paint5_linear_1100_27036)" fill-opacity="0.7"/>
<path d="M1240.47 751.701L1237.33 751.82L902.413 562.302L905.556 562.18L1240.47 751.701Z" fill="url(#paint6_linear_1100_27036)" fill-opacity="0.7"/>
<path d="M1090.64 751.714L1087.45 751.807L836.272 562.286L839.461 562.196L1090.64 751.714Z" fill="url(#paint7_linear_1100_27036)" fill-opacity="0.7"/>
<path d="M940.811 751.73L937.587 751.791L770.131 562.273L773.354 562.209L940.811 751.73Z" fill="url(#paint8_linear_1100_27036)" fill-opacity="0.7"/>
<path d="M790.973 751.746L787.726 751.778L704.001 562.257L707.241 562.225L790.973 751.746Z" fill="url(#paint9_linear_1100_27036)" fill-opacity="0.7"/>
<path d="M641.123 562.241H637.871V751.762H641.123V562.241Z" fill="url(#paint10_linear_1100_27036)" fill-opacity="0.7"/>
<path d="M574.999 562.257L491.268 751.778L488.027 751.746L571.759 562.225L574.999 562.257Z" fill="url(#paint11_linear_1100_27036)" fill-opacity="0.7"/>
<path d="M508.864 562.273L341.413 751.791L338.189 751.73L505.646 562.209L508.864 562.273Z" fill="url(#paint12_linear_1100_27036)" fill-opacity="0.7"/>
<path d="M442.728 562.286L191.54 751.807L188.357 751.714L439.539 562.196L442.728 562.286Z" fill="url(#paint13_linear_1100_27036)" fill-opacity="0.7"/>
<path d="M376.581 562.302L41.6674 751.82L38.5247 751.701L373.438 562.18L376.581 562.302Z" fill="url(#paint14_linear_1100_27036)" fill-opacity="0.7"/>
<path d="M310.434 562.315L-108.205 751.836L-111.296 751.688L307.343 562.167L310.434 562.315Z" fill="url(#paint15_linear_1100_27036)" fill-opacity="0.7"/>
<path d="M244.281 562.328L-258.089 751.849L-261.117 751.674L241.254 562.154L244.281 562.328Z" fill="url(#paint16_linear_1100_27036)" fill-opacity="0.7"/>
<path d="M178.123 562.342L-407.973 751.86L-410.932 751.661L175.164 562.143L178.123 562.342Z" fill="url(#paint17_linear_1100_27036)" fill-opacity="0.7"/>
<path d="M111.964 562.352L-557.863 751.87L-560.741 751.651L109.081 562.13L111.964 562.352Z" fill="url(#paint18_linear_1100_27036)" fill-opacity="0.7"/>
<path d="M45.806 562.363L-707.747 751.881L-710.55 751.64L43.0028 562.119L45.806 562.363Z" fill="url(#paint19_linear_1100_27036)" fill-opacity="0.7"/>
<path d="M1320.75 566.535H-41.753V567.014H1320.75V566.535Z" fill="url(#paint20_linear_1100_27036)" fill-opacity="0.7"/>
<path d="M1342.04 571.354H-63.0385V571.833H1342.04V571.354Z" fill="url(#paint21_linear_1100_27036)" fill-opacity="0.7"/>
<path d="M1364.69 576.485H-85.6995V576.964H1364.69V576.485Z" fill="url(#paint22_linear_1100_27036)" fill-opacity="0.7"/>
<path d="M1388.86 581.954H-109.869V582.434H1388.86V581.954Z" fill="url(#paint23_linear_1100_27036)" fill-opacity="0.7"/>
<path d="M1414.7 587.803H-135.707V588.282H1414.7V587.803Z" fill="url(#paint24_linear_1100_27036)" fill-opacity="0.7"/>
<path d="M1442.38 594.067H-163.387V594.546H1442.38V594.067Z" fill="url(#paint25_linear_1100_27036)" fill-opacity="0.7"/>
<path d="M1472.12 600.797H-193.116V601.276H1472.12V600.797Z" fill="url(#paint26_linear_1100_27036)" fill-opacity="0.7"/>
<path d="M1504.13 608.046H-225.137V608.525H1504.13V608.046Z" fill="url(#paint27_linear_1100_27036)" fill-opacity="0.7"/>
<path d="M1538.71 615.872H-259.712V616.351H1538.71V615.872Z" fill="url(#paint28_linear_1100_27036)" fill-opacity="0.7"/>
<path d="M1576.17 624.352H-297.172V624.831H1576.17V624.352Z" fill="url(#paint29_linear_1100_27036)" fill-opacity="0.7"/>
<path d="M1616.89 633.568H-337.889V634.047H1616.89V633.568Z" fill="url(#paint30_linear_1100_27036)" fill-opacity="0.7"/>
<path d="M1661.3 643.621H-382.308V644.1H1661.3V643.621Z" fill="url(#paint31_linear_1100_27036)" fill-opacity="0.7"/>
<path d="M1709.95 654.632H-430.957V655.111H1709.95V654.632Z" fill="url(#paint32_linear_1100_27036)" fill-opacity="0.7"/>
<path d="M1763.46 666.744H-484.464V667.223H1763.46V666.744Z" fill="url(#paint33_linear_1100_27036)" fill-opacity="0.7"/>
<path d="M1822.61 680.13H-543.606V680.609H1822.61V680.13Z" fill="url(#paint34_linear_1100_27036)" fill-opacity="0.7"/>
<path d="M1888.32 695.004H-609.315V695.483H1888.32V695.004Z" fill="url(#paint35_linear_1100_27036)" fill-opacity="0.7"/>
<path d="M1961.75 711.628H-682.755V712.107H1961.75V711.628Z" fill="url(#paint36_linear_1100_27036)" fill-opacity="0.7"/>
<path d="M2044.37 730.327H-765.37V730.807H2044.37V730.327Z" fill="url(#paint37_linear_1100_27036)" fill-opacity="0.7"/>
</g>
<defs>
<linearGradient id="paint0_linear_1100_27036" x1="639.5" y1="422.473" x2="547.52" y2="532.918" gradientUnits="userSpaceOnUse">
<stop stop-color="#587AD2"/>
<stop offset="0.5" stop-color="#587AD2"/>
<stop offset="1" stop-color="#587AD2"/>
</linearGradient>
<linearGradient id="paint1_linear_1100_27036" x1="639.5" y1="422.473" x2="547.52" y2="532.918" gradientUnits="userSpaceOnUse">
<stop stop-color="#587AD2"/>
<stop offset="0.5" stop-color="#587AD2"/>
<stop offset="1" stop-color="#587AD2"/>
</linearGradient>
<linearGradient id="paint2_linear_1100_27036" x1="639.5" y1="422.473" x2="547.52" y2="532.918" gradientUnits="userSpaceOnUse">
<stop stop-color="#587AD2"/>
<stop offset="0.5" stop-color="#587AD2"/>
<stop offset="1" stop-color="#587AD2"/>
</linearGradient>
<linearGradient id="paint3_linear_1100_27036" x1="639.5" y1="422.473" x2="547.52" y2="532.918" gradientUnits="userSpaceOnUse">
<stop stop-color="#587AD2"/>
<stop offset="0.5" stop-color="#587AD2"/>
<stop offset="1" stop-color="#587AD2"/>
</linearGradient>
<linearGradient id="paint4_linear_1100_27036" x1="639.5" y1="422.473" x2="547.52" y2="532.918" gradientUnits="userSpaceOnUse">
<stop stop-color="#587AD2"/>
<stop offset="0.5" stop-color="#587AD2"/>
<stop offset="1" stop-color="#587AD2"/>
</linearGradient>
<linearGradient id="paint5_linear_1100_27036" x1="639.5" y1="422.473" x2="547.52" y2="532.918" gradientUnits="userSpaceOnUse">
<stop stop-color="#587AD2"/>
<stop offset="0.5" stop-color="#587AD2"/>
<stop offset="1" stop-color="#587AD2"/>
</linearGradient>
<linearGradient id="paint6_linear_1100_27036" x1="639.5" y1="422.473" x2="547.52" y2="532.918" gradientUnits="userSpaceOnUse">
<stop stop-color="#587AD2"/>
<stop offset="0.5" stop-color="#587AD2"/>
<stop offset="1" stop-color="#587AD2"/>
</linearGradient>
<linearGradient id="paint7_linear_1100_27036" x1="639.5" y1="422.473" x2="547.52" y2="532.918" gradientUnits="userSpaceOnUse">
<stop stop-color="#587AD2"/>
<stop offset="0.5" stop-color="#587AD2"/>
<stop offset="1" stop-color="#587AD2"/>
</linearGradient>
<linearGradient id="paint8_linear_1100_27036" x1="639.5" y1="422.473" x2="547.52" y2="532.918" gradientUnits="userSpaceOnUse">
<stop stop-color="#587AD2"/>
<stop offset="0.5" stop-color="#587AD2"/>
<stop offset="1" stop-color="#587AD2"/>
</linearGradient>
<linearGradient id="paint9_linear_1100_27036" x1="639.5" y1="422.473" x2="547.52" y2="532.918" gradientUnits="userSpaceOnUse">
<stop stop-color="#587AD2"/>
<stop offset="0.5" stop-color="#587AD2"/>
<stop offset="1" stop-color="#587AD2"/>
</linearGradient>
<linearGradient id="paint10_linear_1100_27036" x1="639.5" y1="422.473" x2="547.52" y2="532.918" gradientUnits="userSpaceOnUse">
<stop stop-color="#587AD2"/>
<stop offset="0.5" stop-color="#587AD2"/>
<stop offset="1" stop-color="#587AD2"/>
</linearGradient>
<linearGradient id="paint11_linear_1100_27036" x1="639.5" y1="422.473" x2="547.52" y2="532.918" gradientUnits="userSpaceOnUse">
<stop stop-color="#587AD2"/>
<stop offset="0.5" stop-color="#587AD2"/>
<stop offset="1" stop-color="#587AD2"/>
</linearGradient>
<linearGradient id="paint12_linear_1100_27036" x1="639.5" y1="422.473" x2="547.52" y2="532.918" gradientUnits="userSpaceOnUse">
<stop stop-color="#587AD2"/>
<stop offset="0.5" stop-color="#587AD2"/>
<stop offset="1" stop-color="#587AD2"/>
</linearGradient>
<linearGradient id="paint13_linear_1100_27036" x1="639.5" y1="422.473" x2="547.52" y2="532.918" gradientUnits="userSpaceOnUse">
<stop stop-color="#587AD2"/>
<stop offset="0.5" stop-color="#587AD2"/>
<stop offset="1" stop-color="#587AD2"/>
</linearGradient>
<linearGradient id="paint14_linear_1100_27036" x1="639.5" y1="422.473" x2="547.52" y2="532.918" gradientUnits="userSpaceOnUse">
<stop stop-color="#587AD2"/>
<stop offset="0.5" stop-color="#587AD2"/>
<stop offset="1" stop-color="#587AD2"/>
</linearGradient>
<linearGradient id="paint15_linear_1100_27036" x1="639.5" y1="422.473" x2="547.52" y2="532.918" gradientUnits="userSpaceOnUse">
<stop stop-color="#587AD2"/>
<stop offset="0.5" stop-color="#587AD2"/>
<stop offset="1" stop-color="#587AD2"/>
</linearGradient>
<linearGradient id="paint16_linear_1100_27036" x1="639.5" y1="422.473" x2="547.52" y2="532.918" gradientUnits="userSpaceOnUse">
<stop stop-color="#587AD2"/>
<stop offset="0.5" stop-color="#587AD2"/>
<stop offset="1" stop-color="#587AD2"/>
</linearGradient>
<linearGradient id="paint17_linear_1100_27036" x1="639.5" y1="422.473" x2="547.52" y2="532.918" gradientUnits="userSpaceOnUse">
<stop stop-color="#587AD2"/>
<stop offset="0.5" stop-color="#587AD2"/>
<stop offset="1" stop-color="#587AD2"/>
</linearGradient>
<linearGradient id="paint18_linear_1100_27036" x1="639.5" y1="422.473" x2="547.52" y2="532.918" gradientUnits="userSpaceOnUse">
<stop stop-color="#587AD2"/>
<stop offset="0.5" stop-color="#587AD2"/>
<stop offset="1" stop-color="#587AD2"/>
</linearGradient>
<linearGradient id="paint19_linear_1100_27036" x1="639.5" y1="422.473" x2="547.52" y2="532.918" gradientUnits="userSpaceOnUse">
<stop stop-color="#587AD2"/>
<stop offset="0.5" stop-color="#587AD2"/>
<stop offset="1" stop-color="#587AD2"/>
</linearGradient>
<linearGradient id="paint20_linear_1100_27036" x1="639.5" y1="422.473" x2="547.52" y2="532.918" gradientUnits="userSpaceOnUse">
<stop stop-color="#587AD2"/>
<stop offset="0.5" stop-color="#587AD2"/>
<stop offset="1" stop-color="#587AD2"/>
</linearGradient>
<linearGradient id="paint21_linear_1100_27036" x1="639.5" y1="422.473" x2="547.52" y2="532.918" gradientUnits="userSpaceOnUse">
<stop stop-color="#587AD2"/>
<stop offset="0.5" stop-color="#587AD2"/>
<stop offset="1" stop-color="#587AD2"/>
</linearGradient>
<linearGradient id="paint22_linear_1100_27036" x1="639.5" y1="422.473" x2="547.52" y2="532.918" gradientUnits="userSpaceOnUse">
<stop stop-color="#587AD2"/>
<stop offset="0.5" stop-color="#587AD2"/>
<stop offset="1" stop-color="#587AD2"/>
</linearGradient>
<linearGradient id="paint23_linear_1100_27036" x1="639.5" y1="422.473" x2="547.52" y2="532.918" gradientUnits="userSpaceOnUse">
<stop stop-color="#587AD2"/>
<stop offset="0.5" stop-color="#587AD2"/>
<stop offset="1" stop-color="#587AD2"/>
</linearGradient>
<linearGradient id="paint24_linear_1100_27036" x1="639.5" y1="422.473" x2="547.52" y2="532.918" gradientUnits="userSpaceOnUse">
<stop stop-color="#587AD2"/>
<stop offset="0.5" stop-color="#587AD2"/>
<stop offset="1" stop-color="#587AD2"/>
</linearGradient>
<linearGradient id="paint25_linear_1100_27036" x1="639.5" y1="422.473" x2="547.52" y2="532.918" gradientUnits="userSpaceOnUse">
<stop stop-color="#587AD2"/>
<stop offset="0.5" stop-color="#587AD2"/>
<stop offset="1" stop-color="#587AD2"/>
</linearGradient>
<linearGradient id="paint26_linear_1100_27036" x1="639.5" y1="422.473" x2="547.52" y2="532.918" gradientUnits="userSpaceOnUse">
<stop stop-color="#587AD2"/>
<stop offset="0.5" stop-color="#587AD2"/>
<stop offset="1" stop-color="#587AD2"/>
</linearGradient>
<linearGradient id="paint27_linear_1100_27036" x1="639.5" y1="422.473" x2="547.52" y2="532.918" gradientUnits="userSpaceOnUse">
<stop stop-color="#587AD2"/>
<stop offset="0.5" stop-color="#587AD2"/>
<stop offset="1" stop-color="#587AD2"/>
</linearGradient>
<linearGradient id="paint28_linear_1100_27036" x1="639.5" y1="422.473" x2="547.52" y2="532.918" gradientUnits="userSpaceOnUse">
<stop stop-color="#587AD2"/>
<stop offset="0.5" stop-color="#587AD2"/>
<stop offset="1" stop-color="#587AD2"/>
</linearGradient>
<linearGradient id="paint29_linear_1100_27036" x1="639.5" y1="422.473" x2="547.52" y2="532.918" gradientUnits="userSpaceOnUse">
<stop stop-color="#587AD2"/>
<stop offset="0.5" stop-color="#587AD2"/>
<stop offset="1" stop-color="#587AD2"/>
</linearGradient>
<linearGradient id="paint30_linear_1100_27036" x1="639.5" y1="422.473" x2="547.52" y2="532.918" gradientUnits="userSpaceOnUse">
<stop stop-color="#587AD2"/>
<stop offset="0.5" stop-color="#587AD2"/>
<stop offset="1" stop-color="#587AD2"/>
</linearGradient>
<linearGradient id="paint31_linear_1100_27036" x1="639.5" y1="422.473" x2="547.52" y2="532.918" gradientUnits="userSpaceOnUse">
<stop stop-color="#587AD2"/>
<stop offset="0.5" stop-color="#587AD2"/>
<stop offset="1" stop-color="#587AD2"/>
</linearGradient>
<linearGradient id="paint32_linear_1100_27036" x1="639.5" y1="422.473" x2="547.52" y2="532.918" gradientUnits="userSpaceOnUse">
<stop stop-color="#587AD2"/>
<stop offset="0.5" stop-color="#587AD2"/>
<stop offset="1" stop-color="#587AD2"/>
</linearGradient>
<linearGradient id="paint33_linear_1100_27036" x1="639.5" y1="422.473" x2="547.52" y2="532.918" gradientUnits="userSpaceOnUse">
<stop stop-color="#587AD2"/>
<stop offset="0.5" stop-color="#587AD2"/>
<stop offset="1" stop-color="#587AD2"/>
</linearGradient>
<linearGradient id="paint34_linear_1100_27036" x1="639.5" y1="422.473" x2="547.52" y2="532.918" gradientUnits="userSpaceOnUse">
<stop stop-color="#587AD2"/>
<stop offset="0.5" stop-color="#587AD2"/>
<stop offset="1" stop-color="#587AD2"/>
</linearGradient>
<linearGradient id="paint35_linear_1100_27036" x1="639.5" y1="422.473" x2="547.52" y2="532.918" gradientUnits="userSpaceOnUse">
<stop stop-color="#587AD2"/>
<stop offset="0.5" stop-color="#587AD2"/>
<stop offset="1" stop-color="#587AD2"/>
</linearGradient>
<linearGradient id="paint36_linear_1100_27036" x1="639.5" y1="422.473" x2="547.52" y2="532.918" gradientUnits="userSpaceOnUse">
<stop stop-color="#587AD2"/>
<stop offset="0.5" stop-color="#587AD2"/>
<stop offset="1" stop-color="#587AD2"/>
</linearGradient>
<linearGradient id="paint37_linear_1100_27036" x1="639.5" y1="422.473" x2="547.52" y2="532.918" gradientUnits="userSpaceOnUse">
<stop stop-color="#587AD2"/>
<stop offset="0.5" stop-color="#587AD2"/>
<stop offset="1" stop-color="#587AD2"/>
</linearGradient>
<clipPath id="clip0_1100_27036">
<rect width="1309" height="692" fill="white" transform="translate(-15)"/>
</clipPath>
</defs>
</svg>
