<svg width="23" height="19" viewBox="0 0 23 19" fill="none" xmlns="http://www.w3.org/2000/svg">
<path d="M21.8992 0.078298C22.6875 0.350087 23.1361 1.13457 22.9631 1.9314C22.8413 2.49351 22.3606 2.99385 21.8031 3.13592C21.6493 3.17916 18.0795 3.19152 11.3502 3.18534L1.14078 3.16681L0.878021 3.03091C0.570395 2.87031 0.237131 2.5244 0.0961342 2.21555C-0.0320435 1.9314 -0.0320435 1.25193 0.0961342 0.967789C0.237131 0.658938 0.570395 0.313025 0.878021 0.152422L1.14078 0.0165276L11.395 0.00417361C20.0855 -0.00818043 21.6877 0.0041738 21.8992 0.078298Z" fill="#DAF301"/>
<path d="M21.8992 7.98488C22.6875 8.25667 23.1361 9.04115 22.9631 9.83799C22.8413 10.4001 22.3606 10.9004 21.8031 11.0425C21.6493 11.0857 19.7074 11.0981 16.285 11.0919C11.2156 11.0734 10.9977 11.0672 10.7605 10.956C10.1517 10.6657 9.85688 10.1839 9.85688 9.49825C9.85688 8.8126 10.1517 8.3308 10.7605 8.04048C11.0041 7.92929 11.2092 7.92311 16.3299 7.91076C20.7776 7.8984 21.6877 7.91076 21.8992 7.98488Z" fill="#DAF301"/>
<path d="M21.8992 15.8915C22.6875 16.1633 23.1361 16.9477 22.9631 17.7446C22.8413 18.3067 22.3606 18.807 21.8031 18.9491C21.6493 18.9923 18.0795 19.0047 11.3502 18.9985L1.14078 18.98L0.878021 18.8441C0.570395 18.6835 0.237131 18.3376 0.0961342 18.0287C-0.0320435 17.7446 -0.0320435 17.0651 0.0961342 16.781C0.237131 16.4721 0.570395 16.1262 0.878021 15.9656L1.14078 15.8297L11.395 15.8173C20.0855 15.805 21.6877 15.8173 21.8992 15.8915Z" fill="#DAF301"/>
</svg>
